%
M48
M72
T01C0.0190
T02C0.0320
T03C0.0400
T04C0.1102
T05C0.1260
%
T01
X1760Y4660
X1760Y5160
X1760Y5660
X1760Y6160
X1760Y6660
X1760Y7160
X1760Y7660
X1760Y8160
X1760Y8660
X2260Y8660
X2260Y8160
X2260Y7660
X2260Y7160
X2260Y6660
X2260Y6160
X2260Y5660
X2260Y5160
X2260Y4660
X2760Y4660
X2760Y5160
X2760Y5660
X2760Y6160
X2760Y6660
X2760Y7160
X2760Y7660
X2760Y8160
X2760Y8660
X3260Y8660
X3260Y8160
X3260Y7660
X3260Y7160
X3260Y6660
X3260Y6160
X3260Y5660
X3260Y5160
X3260Y4660
X3760Y4660
X3760Y5160
X3760Y5660
X3760Y6160
X3760Y6660
X3760Y7160
X3760Y7660
X3760Y8160
X3760Y8660
X4260Y8660
X4260Y8160
X4260Y7660
X4260Y7160
X4260Y6660
X4260Y6160
X4260Y5660
X4260Y5160
X4260Y4660
X5160Y3960
X6460Y6660
X8060Y6660
X10360Y5460
X11560Y5460
X11560Y3860
X10360Y3860
X9260Y9260
X8760Y12260
T02
X9360Y7360
X10760Y7360
T03
X7660Y10860
X7660Y11860
X6660Y11860
X5660Y11860
X5660Y10860
X6660Y10860
X4660Y10860
X4660Y11860
T04
X5360Y2260
X7460Y2260
X9660Y2260
X3160Y2260
T05
X1260Y1260
X1260Y11560
X11560Y11560
X11560Y1260
M30
