G75*
%MOIN*%
%OFA0B0*%
%FSLAX24Y24*%
%IPPOS*%
%LPD*%
%AMOC8*
5,1,8,0,0,1.08239X$1,22.5*
%
%ADD10C,0.0000*%
D10*
X000150Y001150D02*
X000150Y011650D01*
X000152Y011710D01*
X000157Y011771D01*
X000166Y011830D01*
X000179Y011889D01*
X000195Y011948D01*
X000215Y012005D01*
X000238Y012060D01*
X000265Y012115D01*
X000294Y012167D01*
X000327Y012218D01*
X000363Y012267D01*
X000401Y012313D01*
X000443Y012357D01*
X000487Y012399D01*
X000533Y012437D01*
X000582Y012473D01*
X000633Y012506D01*
X000685Y012535D01*
X000740Y012562D01*
X000795Y012585D01*
X000852Y012605D01*
X000911Y012621D01*
X000970Y012634D01*
X001029Y012643D01*
X001090Y012648D01*
X001150Y012650D01*
X011650Y012650D01*
X011710Y012648D01*
X011771Y012643D01*
X011830Y012634D01*
X011889Y012621D01*
X011948Y012605D01*
X012005Y012585D01*
X012060Y012562D01*
X012115Y012535D01*
X012167Y012506D01*
X012218Y012473D01*
X012267Y012437D01*
X012313Y012399D01*
X012357Y012357D01*
X012399Y012313D01*
X012437Y012267D01*
X012473Y012218D01*
X012506Y012167D01*
X012535Y012115D01*
X012562Y012060D01*
X012585Y012005D01*
X012605Y011948D01*
X012621Y011889D01*
X012634Y011830D01*
X012643Y011771D01*
X012648Y011710D01*
X012650Y011650D01*
X012650Y001150D01*
X012648Y001090D01*
X012643Y001029D01*
X012634Y000970D01*
X012621Y000911D01*
X012605Y000852D01*
X012585Y000795D01*
X012562Y000740D01*
X012535Y000685D01*
X012506Y000633D01*
X012473Y000582D01*
X012437Y000533D01*
X012399Y000487D01*
X012357Y000443D01*
X012313Y000401D01*
X012267Y000363D01*
X012218Y000327D01*
X012167Y000294D01*
X012115Y000265D01*
X012060Y000238D01*
X012005Y000215D01*
X011948Y000195D01*
X011889Y000179D01*
X011830Y000166D01*
X011771Y000157D01*
X011710Y000152D01*
X011650Y000150D01*
X001150Y000150D01*
X001090Y000152D01*
X001029Y000157D01*
X000970Y000166D01*
X000911Y000179D01*
X000852Y000195D01*
X000795Y000215D01*
X000740Y000238D01*
X000685Y000265D01*
X000633Y000294D01*
X000582Y000327D01*
X000533Y000363D01*
X000487Y000401D01*
X000443Y000443D01*
X000401Y000487D01*
X000363Y000533D01*
X000327Y000582D01*
X000294Y000633D01*
X000265Y000685D01*
X000238Y000740D01*
X000215Y000795D01*
X000195Y000852D01*
X000179Y000911D01*
X000166Y000970D01*
X000157Y001029D01*
X000152Y001090D01*
X000150Y001150D01*
X000620Y001250D02*
X000622Y001300D01*
X000628Y001350D01*
X000638Y001399D01*
X000652Y001447D01*
X000669Y001494D01*
X000690Y001539D01*
X000715Y001583D01*
X000743Y001624D01*
X000775Y001663D01*
X000809Y001700D01*
X000846Y001734D01*
X000886Y001764D01*
X000928Y001791D01*
X000972Y001815D01*
X001018Y001836D01*
X001065Y001852D01*
X001113Y001865D01*
X001163Y001874D01*
X001212Y001879D01*
X001263Y001880D01*
X001313Y001877D01*
X001362Y001870D01*
X001411Y001859D01*
X001459Y001844D01*
X001505Y001826D01*
X001550Y001804D01*
X001593Y001778D01*
X001634Y001749D01*
X001673Y001717D01*
X001709Y001682D01*
X001741Y001644D01*
X001771Y001604D01*
X001798Y001561D01*
X001821Y001517D01*
X001840Y001471D01*
X001856Y001423D01*
X001868Y001374D01*
X001876Y001325D01*
X001880Y001275D01*
X001880Y001225D01*
X001876Y001175D01*
X001868Y001126D01*
X001856Y001077D01*
X001840Y001029D01*
X001821Y000983D01*
X001798Y000939D01*
X001771Y000896D01*
X001741Y000856D01*
X001709Y000818D01*
X001673Y000783D01*
X001634Y000751D01*
X001593Y000722D01*
X001550Y000696D01*
X001505Y000674D01*
X001459Y000656D01*
X001411Y000641D01*
X001362Y000630D01*
X001313Y000623D01*
X001263Y000620D01*
X001212Y000621D01*
X001163Y000626D01*
X001113Y000635D01*
X001065Y000648D01*
X001018Y000664D01*
X000972Y000685D01*
X000928Y000709D01*
X000886Y000736D01*
X000846Y000766D01*
X000809Y000800D01*
X000775Y000837D01*
X000743Y000876D01*
X000715Y000917D01*
X000690Y000961D01*
X000669Y001006D01*
X000652Y001053D01*
X000638Y001101D01*
X000628Y001150D01*
X000622Y001200D01*
X000620Y001250D01*
X000620Y011450D02*
X000622Y011500D01*
X000628Y011550D01*
X000638Y011599D01*
X000652Y011647D01*
X000669Y011694D01*
X000690Y011739D01*
X000715Y011783D01*
X000743Y011824D01*
X000775Y011863D01*
X000809Y011900D01*
X000846Y011934D01*
X000886Y011964D01*
X000928Y011991D01*
X000972Y012015D01*
X001018Y012036D01*
X001065Y012052D01*
X001113Y012065D01*
X001163Y012074D01*
X001212Y012079D01*
X001263Y012080D01*
X001313Y012077D01*
X001362Y012070D01*
X001411Y012059D01*
X001459Y012044D01*
X001505Y012026D01*
X001550Y012004D01*
X001593Y011978D01*
X001634Y011949D01*
X001673Y011917D01*
X001709Y011882D01*
X001741Y011844D01*
X001771Y011804D01*
X001798Y011761D01*
X001821Y011717D01*
X001840Y011671D01*
X001856Y011623D01*
X001868Y011574D01*
X001876Y011525D01*
X001880Y011475D01*
X001880Y011425D01*
X001876Y011375D01*
X001868Y011326D01*
X001856Y011277D01*
X001840Y011229D01*
X001821Y011183D01*
X001798Y011139D01*
X001771Y011096D01*
X001741Y011056D01*
X001709Y011018D01*
X001673Y010983D01*
X001634Y010951D01*
X001593Y010922D01*
X001550Y010896D01*
X001505Y010874D01*
X001459Y010856D01*
X001411Y010841D01*
X001362Y010830D01*
X001313Y010823D01*
X001263Y010820D01*
X001212Y010821D01*
X001163Y010826D01*
X001113Y010835D01*
X001065Y010848D01*
X001018Y010864D01*
X000972Y010885D01*
X000928Y010909D01*
X000886Y010936D01*
X000846Y010966D01*
X000809Y011000D01*
X000775Y011037D01*
X000743Y011076D01*
X000715Y011117D01*
X000690Y011161D01*
X000669Y011206D01*
X000652Y011253D01*
X000638Y011301D01*
X000628Y011350D01*
X000622Y011400D01*
X000620Y011450D01*
X010920Y011450D02*
X010922Y011500D01*
X010928Y011550D01*
X010938Y011599D01*
X010952Y011647D01*
X010969Y011694D01*
X010990Y011739D01*
X011015Y011783D01*
X011043Y011824D01*
X011075Y011863D01*
X011109Y011900D01*
X011146Y011934D01*
X011186Y011964D01*
X011228Y011991D01*
X011272Y012015D01*
X011318Y012036D01*
X011365Y012052D01*
X011413Y012065D01*
X011463Y012074D01*
X011512Y012079D01*
X011563Y012080D01*
X011613Y012077D01*
X011662Y012070D01*
X011711Y012059D01*
X011759Y012044D01*
X011805Y012026D01*
X011850Y012004D01*
X011893Y011978D01*
X011934Y011949D01*
X011973Y011917D01*
X012009Y011882D01*
X012041Y011844D01*
X012071Y011804D01*
X012098Y011761D01*
X012121Y011717D01*
X012140Y011671D01*
X012156Y011623D01*
X012168Y011574D01*
X012176Y011525D01*
X012180Y011475D01*
X012180Y011425D01*
X012176Y011375D01*
X012168Y011326D01*
X012156Y011277D01*
X012140Y011229D01*
X012121Y011183D01*
X012098Y011139D01*
X012071Y011096D01*
X012041Y011056D01*
X012009Y011018D01*
X011973Y010983D01*
X011934Y010951D01*
X011893Y010922D01*
X011850Y010896D01*
X011805Y010874D01*
X011759Y010856D01*
X011711Y010841D01*
X011662Y010830D01*
X011613Y010823D01*
X011563Y010820D01*
X011512Y010821D01*
X011463Y010826D01*
X011413Y010835D01*
X011365Y010848D01*
X011318Y010864D01*
X011272Y010885D01*
X011228Y010909D01*
X011186Y010936D01*
X011146Y010966D01*
X011109Y011000D01*
X011075Y011037D01*
X011043Y011076D01*
X011015Y011117D01*
X010990Y011161D01*
X010969Y011206D01*
X010952Y011253D01*
X010938Y011301D01*
X010928Y011350D01*
X010922Y011400D01*
X010920Y011450D01*
X010920Y001250D02*
X010922Y001300D01*
X010928Y001350D01*
X010938Y001399D01*
X010952Y001447D01*
X010969Y001494D01*
X010990Y001539D01*
X011015Y001583D01*
X011043Y001624D01*
X011075Y001663D01*
X011109Y001700D01*
X011146Y001734D01*
X011186Y001764D01*
X011228Y001791D01*
X011272Y001815D01*
X011318Y001836D01*
X011365Y001852D01*
X011413Y001865D01*
X011463Y001874D01*
X011512Y001879D01*
X011563Y001880D01*
X011613Y001877D01*
X011662Y001870D01*
X011711Y001859D01*
X011759Y001844D01*
X011805Y001826D01*
X011850Y001804D01*
X011893Y001778D01*
X011934Y001749D01*
X011973Y001717D01*
X012009Y001682D01*
X012041Y001644D01*
X012071Y001604D01*
X012098Y001561D01*
X012121Y001517D01*
X012140Y001471D01*
X012156Y001423D01*
X012168Y001374D01*
X012176Y001325D01*
X012180Y001275D01*
X012180Y001225D01*
X012176Y001175D01*
X012168Y001126D01*
X012156Y001077D01*
X012140Y001029D01*
X012121Y000983D01*
X012098Y000939D01*
X012071Y000896D01*
X012041Y000856D01*
X012009Y000818D01*
X011973Y000783D01*
X011934Y000751D01*
X011893Y000722D01*
X011850Y000696D01*
X011805Y000674D01*
X011759Y000656D01*
X011711Y000641D01*
X011662Y000630D01*
X011613Y000623D01*
X011563Y000620D01*
X011512Y000621D01*
X011463Y000626D01*
X011413Y000635D01*
X011365Y000648D01*
X011318Y000664D01*
X011272Y000685D01*
X011228Y000709D01*
X011186Y000736D01*
X011146Y000766D01*
X011109Y000800D01*
X011075Y000837D01*
X011043Y000876D01*
X011015Y000917D01*
X010990Y000961D01*
X010969Y001006D01*
X010952Y001053D01*
X010938Y001101D01*
X010928Y001150D01*
X010922Y001200D01*
X010920Y001250D01*
M02*
