G75*
%MOIN*%
%OFA0B0*%
%FSLAX24Y24*%
%IPPOS*%
%LPD*%
%AMOC8*
5,1,8,0,0,1.08239X$1,22.5*
%
%ADD10C,0.0090*%
%ADD11C,0.0080*%
%ADD12C,0.0091*%
%ADD13R,0.0400X0.1500*%
%ADD14R,0.0660X0.0300*%
%ADD15C,0.0109*%
D10*
X000795Y006505D02*
X001365Y006505D01*
X001080Y006505D02*
X001080Y006885D01*
X000795Y006885D02*
X001365Y006885D01*
X001270Y007113D02*
X001365Y007208D01*
X001365Y007398D01*
X001270Y007493D01*
X000890Y007493D01*
X000795Y007398D01*
X000795Y007208D01*
X000890Y007113D01*
X001270Y007113D01*
X000795Y007720D02*
X000795Y008101D01*
X000795Y007911D02*
X001365Y007911D01*
D11*
X002619Y000620D02*
X002689Y000550D01*
X002829Y000550D01*
X002899Y000620D01*
X002899Y000760D01*
X002759Y000760D01*
X002619Y000900D02*
X002619Y000620D01*
X002619Y000900D02*
X002689Y000970D01*
X002829Y000970D01*
X002899Y000900D01*
X003079Y000970D02*
X003359Y000550D01*
X003359Y000970D01*
X003540Y000970D02*
X003750Y000970D01*
X003820Y000900D01*
X003820Y000620D01*
X003750Y000550D01*
X003540Y000550D01*
X003540Y000970D01*
X003079Y000970D02*
X003079Y000550D01*
X004719Y000550D02*
X004999Y000550D01*
X004859Y000760D02*
X004719Y000760D01*
X004719Y000970D02*
X004719Y000550D01*
X004719Y000970D02*
X004999Y000970D01*
X005179Y000900D02*
X005179Y000830D01*
X005249Y000760D01*
X005389Y000760D01*
X005459Y000690D01*
X005459Y000620D01*
X005389Y000550D01*
X005249Y000550D01*
X005179Y000620D01*
X005179Y000900D02*
X005249Y000970D01*
X005389Y000970D01*
X005459Y000900D01*
X005640Y000900D02*
X005640Y000620D01*
X005710Y000550D01*
X005850Y000550D01*
X005920Y000620D01*
X005920Y000900D02*
X005850Y000970D01*
X005710Y000970D01*
X005640Y000900D01*
X006972Y000970D02*
X006972Y000690D01*
X007112Y000550D01*
X007253Y000690D01*
X007253Y000970D01*
X007433Y000970D02*
X007573Y000970D01*
X007503Y000970D02*
X007503Y000550D01*
X007433Y000550D02*
X007573Y000550D01*
X007740Y000550D02*
X007740Y000970D01*
X008020Y000550D01*
X008020Y000970D01*
X009019Y000900D02*
X009019Y000620D01*
X009089Y000550D01*
X009229Y000550D01*
X009299Y000620D01*
X009299Y000760D01*
X009159Y000760D01*
X009299Y000900D02*
X009229Y000970D01*
X009089Y000970D01*
X009019Y000900D01*
X009479Y000970D02*
X009479Y000550D01*
X009759Y000550D02*
X009479Y000970D01*
X009759Y000970D02*
X009759Y000550D01*
X009940Y000550D02*
X010150Y000550D01*
X010220Y000620D01*
X010220Y000900D01*
X010150Y000970D01*
X009940Y000970D01*
X009940Y000550D01*
X011196Y002495D02*
X011345Y002616D01*
X011405Y002585D01*
X011489Y002789D01*
X011452Y002811D01*
X011420Y002840D01*
X011396Y002876D01*
X011381Y002917D01*
X011375Y002960D01*
X011381Y003004D01*
X011396Y003045D01*
X011421Y003082D01*
X011454Y003111D01*
X011493Y003132D01*
X011536Y003143D01*
X011580Y003143D01*
X011623Y003133D01*
X011662Y003113D01*
X011696Y003085D01*
X011722Y003049D01*
X011738Y003008D01*
X011744Y002964D01*
X011740Y002920D01*
X011725Y002878D01*
X011701Y002841D01*
X011669Y002811D01*
X011631Y002789D01*
X011715Y002585D01*
X011775Y002616D01*
X011924Y002495D01*
X012025Y002596D01*
X011904Y002745D01*
X011935Y002805D01*
X011956Y002869D01*
X012146Y002888D01*
X012146Y003032D01*
X011956Y003051D01*
X011935Y003115D01*
X011904Y003175D01*
X012025Y003324D01*
X011924Y003425D01*
X011775Y003304D01*
X011715Y003335D01*
X011651Y003356D01*
X011632Y003546D01*
X011488Y003546D01*
X011469Y003356D01*
X011405Y003335D01*
X011345Y003304D01*
X011196Y003425D01*
X011095Y003324D01*
X011216Y003175D01*
X011185Y003115D01*
X011164Y003051D01*
X010974Y003032D01*
X010974Y002888D01*
X011164Y002869D01*
X011185Y002805D01*
X011216Y002745D01*
X011095Y002596D01*
X011196Y002495D01*
X011176Y002515D02*
X011221Y002515D01*
X011318Y002594D02*
X011098Y002594D01*
X011156Y002672D02*
X011441Y002672D01*
X011473Y002751D02*
X011213Y002751D01*
X011177Y002829D02*
X011432Y002829D01*
X011384Y002908D02*
X010974Y002908D01*
X010974Y002986D02*
X011379Y002986D01*
X011410Y003065D02*
X011169Y003065D01*
X011199Y003143D02*
X011544Y003143D01*
X011582Y003143D02*
X011921Y003143D01*
X011942Y003222D02*
X011178Y003222D01*
X011114Y003300D02*
X012006Y003300D01*
X011970Y003379D02*
X011866Y003379D01*
X011649Y003379D02*
X011471Y003379D01*
X011479Y003457D02*
X011641Y003457D01*
X011633Y003536D02*
X011487Y003536D01*
X011254Y003379D02*
X011150Y003379D01*
X010960Y003910D02*
X009160Y003910D01*
X008520Y004000D02*
X008520Y004214D01*
X008520Y004107D02*
X008200Y004107D01*
X008306Y004000D01*
X008253Y004368D02*
X008200Y004422D01*
X008200Y004528D01*
X008253Y004582D01*
X008306Y004582D01*
X008360Y004528D01*
X008413Y004582D01*
X008467Y004582D01*
X008520Y004528D01*
X008520Y004422D01*
X008467Y004368D01*
X008360Y004475D02*
X008360Y004528D01*
X008467Y004737D02*
X008467Y004790D01*
X008520Y004790D01*
X008520Y004737D01*
X008467Y004737D01*
X008467Y004921D02*
X008360Y004921D01*
X008360Y005081D01*
X008413Y005134D01*
X008467Y005134D01*
X008520Y005081D01*
X008520Y004974D01*
X008467Y004921D01*
X008360Y004921D02*
X008253Y005028D01*
X008200Y005134D01*
X008200Y005289D02*
X008413Y005289D01*
X008520Y005396D01*
X008413Y005503D01*
X008200Y005503D01*
X009160Y005410D02*
X010960Y005410D01*
X011900Y005289D02*
X012220Y005289D01*
X012220Y005449D01*
X012167Y005503D01*
X012060Y005503D01*
X012006Y005449D01*
X012006Y005289D01*
X012167Y005158D02*
X012220Y005158D01*
X012220Y005105D01*
X012167Y005105D01*
X012167Y005158D01*
X012167Y004950D02*
X012006Y004950D01*
X012167Y004950D02*
X012220Y004897D01*
X012167Y004843D01*
X012220Y004790D01*
X012167Y004737D01*
X012006Y004737D01*
X012006Y004582D02*
X012167Y004582D01*
X012220Y004528D01*
X012167Y004475D01*
X012220Y004422D01*
X012167Y004368D01*
X012006Y004368D01*
X012006Y004214D02*
X012167Y004214D01*
X012220Y004160D01*
X012167Y004107D01*
X012220Y004053D01*
X012167Y004000D01*
X012006Y004000D01*
X011951Y003065D02*
X011710Y003065D01*
X011741Y002986D02*
X012146Y002986D01*
X012146Y002908D02*
X011736Y002908D01*
X011688Y002829D02*
X011943Y002829D01*
X011907Y002751D02*
X011647Y002751D01*
X011679Y002672D02*
X011964Y002672D01*
X012022Y002594D02*
X011802Y002594D01*
X011732Y002594D02*
X011712Y002594D01*
X011899Y002515D02*
X011944Y002515D01*
X011408Y002594D02*
X011388Y002594D01*
X012060Y005657D02*
X012006Y005711D01*
X012006Y005818D01*
X012060Y005871D01*
X012167Y005871D01*
X012220Y005818D01*
X012220Y005711D01*
X012167Y005657D01*
X012060Y005657D01*
X012006Y006026D02*
X012006Y006132D01*
X011953Y006079D02*
X012167Y006079D01*
X012220Y006132D01*
X012060Y006271D02*
X012060Y006485D01*
X012006Y006640D02*
X012006Y006746D01*
X011953Y006693D02*
X012167Y006693D01*
X012220Y006746D01*
X012220Y006885D02*
X011900Y006885D01*
X012006Y006939D02*
X012006Y007045D01*
X012060Y007099D01*
X012220Y007099D01*
X012167Y007253D02*
X012220Y007307D01*
X012220Y007414D01*
X012167Y007467D01*
X012060Y007467D01*
X012006Y007414D01*
X012006Y007307D01*
X012060Y007253D01*
X012167Y007253D01*
X012006Y006939D02*
X012060Y006885D01*
X012006Y007622D02*
X012167Y007622D01*
X012220Y007675D01*
X012220Y007835D01*
X012006Y007835D01*
X012060Y007990D02*
X012006Y008043D01*
X012006Y008204D01*
X012273Y008204D01*
X012327Y008150D01*
X012327Y008097D01*
X012220Y008043D02*
X012220Y008204D01*
X012220Y008043D02*
X012167Y007990D01*
X012060Y007990D01*
X012060Y008358D02*
X012006Y008412D01*
X012006Y008519D01*
X012060Y008572D01*
X012220Y008572D01*
X012220Y008358D02*
X011900Y008358D01*
X012006Y008727D02*
X012006Y008833D01*
X011953Y008780D02*
X012167Y008780D01*
X012220Y008833D01*
X012220Y008972D02*
X012220Y009132D01*
X012167Y009186D01*
X012113Y009132D01*
X012113Y009026D01*
X012060Y008972D01*
X012006Y009026D01*
X012006Y009186D01*
X012167Y009341D02*
X012167Y009394D01*
X012220Y009394D01*
X012220Y009341D01*
X012167Y009341D01*
X012167Y009525D02*
X012220Y009578D01*
X012220Y009738D01*
X012167Y009525D02*
X012060Y009525D01*
X012006Y009578D01*
X012006Y009738D01*
X012060Y009893D02*
X012006Y009946D01*
X012006Y010053D01*
X012060Y010107D01*
X012167Y010107D01*
X012220Y010053D01*
X012220Y009946D01*
X012167Y009893D01*
X012060Y009893D01*
X012006Y010261D02*
X012006Y010315D01*
X012060Y010368D01*
X012006Y010421D01*
X012060Y010475D01*
X012220Y010475D01*
X012220Y010368D02*
X012060Y010368D01*
X012006Y010261D02*
X012220Y010261D01*
X011716Y010216D02*
X011260Y010216D01*
X011103Y009988D02*
X011105Y010011D01*
X011111Y010033D01*
X011120Y010054D01*
X011132Y010073D01*
X011148Y010090D01*
X011166Y010104D01*
X011186Y010115D01*
X011208Y010123D01*
X011231Y010127D01*
X011253Y010127D01*
X011276Y010123D01*
X011298Y010115D01*
X011318Y010104D01*
X011336Y010090D01*
X011352Y010073D01*
X011364Y010054D01*
X011373Y010033D01*
X011379Y010011D01*
X011381Y009988D01*
X011379Y009965D01*
X011373Y009943D01*
X011364Y009922D01*
X011352Y009903D01*
X011336Y009886D01*
X011318Y009872D01*
X011298Y009861D01*
X011276Y009853D01*
X011253Y009849D01*
X011231Y009849D01*
X011208Y009853D01*
X011186Y009861D01*
X011166Y009872D01*
X011148Y009886D01*
X011132Y009903D01*
X011120Y009922D01*
X011111Y009943D01*
X011105Y009965D01*
X011103Y009988D01*
X011160Y009942D02*
X011162Y009954D01*
X011168Y009964D01*
X011176Y009972D01*
X011187Y009977D01*
X011199Y009978D01*
X011210Y009975D01*
X011220Y009968D01*
X011228Y009959D01*
X011232Y009948D01*
X011232Y009936D01*
X011228Y009925D01*
X011220Y009916D01*
X011210Y009909D01*
X011199Y009906D01*
X011187Y009907D01*
X011176Y009912D01*
X011168Y009920D01*
X011162Y009930D01*
X011160Y009942D01*
X011260Y010216D02*
X011220Y010214D01*
X011181Y010209D01*
X011142Y010200D01*
X011104Y010188D01*
X011067Y010173D01*
X011032Y010155D01*
X010998Y010134D01*
X010967Y010109D01*
X010938Y010082D01*
X010911Y010053D01*
X010886Y010022D01*
X010865Y009988D01*
X010847Y009953D01*
X010832Y009916D01*
X010820Y009878D01*
X010811Y009839D01*
X010806Y009800D01*
X010804Y009760D01*
X010759Y009760D01*
X011579Y009623D02*
X011591Y009673D01*
X011599Y009725D01*
X011604Y009776D01*
X011606Y009828D01*
X011604Y009880D01*
X011599Y009931D01*
X011591Y009983D01*
X011579Y010033D01*
X011488Y010079D01*
X011716Y010216D02*
X011716Y009304D01*
X011260Y009304D01*
X011442Y009532D02*
X011579Y009623D01*
X011260Y009304D02*
X011220Y009306D01*
X011181Y009311D01*
X011142Y009320D01*
X011104Y009332D01*
X011067Y009347D01*
X011032Y009365D01*
X010998Y009386D01*
X010967Y009411D01*
X010938Y009438D01*
X010911Y009467D01*
X010886Y009498D01*
X010865Y009532D01*
X010847Y009567D01*
X010832Y009604D01*
X010820Y009642D01*
X010811Y009681D01*
X010806Y009720D01*
X010804Y009760D01*
X011443Y009533D02*
X011462Y009591D01*
X011477Y009651D01*
X011490Y009711D01*
X011498Y009772D01*
X011503Y009834D01*
X011505Y009895D01*
X011503Y009957D01*
X011497Y010018D01*
X011488Y010079D01*
X011670Y010352D02*
X011649Y010335D01*
X011625Y010320D01*
X011600Y010308D01*
X011573Y010299D01*
X011546Y010294D01*
X011518Y010293D01*
X011490Y010295D01*
X011463Y010301D01*
X011437Y010310D01*
X011412Y010323D01*
X011389Y010338D01*
X011368Y010357D01*
X011349Y010377D01*
X011334Y010401D01*
X011321Y010426D01*
X011312Y010452D01*
X011306Y010479D01*
X011304Y010507D01*
X011305Y010535D01*
X011294Y010508D01*
X011279Y010483D01*
X011261Y010459D01*
X011240Y010438D01*
X011217Y010420D01*
X011192Y010404D01*
X011165Y010392D01*
X011137Y010383D01*
X011107Y010378D01*
X011078Y010376D01*
X011049Y010378D01*
X011019Y010383D01*
X010991Y010392D01*
X010964Y010404D01*
X010939Y010420D01*
X010916Y010438D01*
X010895Y010459D01*
X010877Y010483D01*
X010862Y010508D01*
X010851Y010535D01*
X010850Y010535D02*
X010858Y010504D01*
X010862Y010472D01*
X010863Y010440D01*
X010860Y010408D01*
X010853Y010376D01*
X010843Y010346D01*
X010829Y010317D01*
X010812Y010290D01*
X010792Y010265D01*
X010769Y010242D01*
X010743Y010223D01*
X010716Y010206D01*
X010687Y010193D01*
X010656Y010183D01*
X010625Y010177D01*
X010593Y010174D01*
X010561Y010175D01*
X010529Y010180D01*
X010498Y010189D01*
X010468Y010201D01*
X010440Y010216D01*
X010467Y010192D01*
X010491Y010165D01*
X010512Y010136D01*
X010531Y010104D01*
X010545Y010071D01*
X010557Y010037D01*
X010564Y010002D01*
X010568Y009966D01*
X010569Y009929D01*
X010565Y009893D01*
X010558Y009858D01*
X010547Y009823D01*
X010532Y009790D01*
X010514Y009759D01*
X010493Y009729D01*
X010469Y009702D01*
X010442Y009678D01*
X010413Y009657D01*
X010381Y009638D01*
X010348Y009624D01*
X010348Y009623D02*
X010386Y009618D01*
X010422Y009609D01*
X010457Y009597D01*
X010491Y009581D01*
X010524Y009561D01*
X010554Y009539D01*
X010582Y009514D01*
X010607Y009486D01*
X010629Y009455D01*
X010648Y009423D01*
X010664Y009389D01*
X010676Y009353D01*
X010685Y009317D01*
X010690Y009279D01*
X010691Y009242D01*
X010688Y009204D01*
X010682Y009167D01*
X010672Y009131D01*
X010659Y009096D01*
X010642Y009062D01*
X010622Y009031D01*
X010640Y009060D01*
X010661Y009087D01*
X010684Y009111D01*
X010710Y009133D01*
X010739Y009152D01*
X010769Y009168D01*
X010800Y009180D01*
X010833Y009189D01*
X010866Y009195D01*
X010900Y009197D01*
X010934Y009195D01*
X010967Y009190D01*
X011000Y009182D01*
X011032Y009170D01*
X011062Y009154D01*
X011090Y009136D01*
X011116Y009114D01*
X011140Y009090D01*
X011161Y009064D01*
X011180Y009035D01*
X011195Y009005D01*
X011207Y008973D01*
X011215Y008940D01*
X011214Y008940D02*
X011213Y008971D01*
X011216Y009002D01*
X011223Y009033D01*
X011233Y009063D01*
X011246Y009091D01*
X011262Y009118D01*
X011281Y009143D01*
X011303Y009166D01*
X011327Y009186D01*
X011353Y009203D01*
X011381Y009218D01*
X011410Y009229D01*
X011441Y009237D01*
X011472Y009242D01*
X011503Y009243D01*
X011535Y009241D01*
X011565Y009235D01*
X011595Y009226D01*
X011624Y009213D01*
X011032Y009669D02*
X011034Y009695D01*
X011040Y009721D01*
X011049Y009746D01*
X011062Y009769D01*
X011078Y009790D01*
X011098Y009809D01*
X011119Y009824D01*
X011143Y009837D01*
X011168Y009845D01*
X011194Y009850D01*
X011221Y009851D01*
X011247Y009848D01*
X011273Y009841D01*
X011297Y009831D01*
X011320Y009817D01*
X011340Y009800D01*
X011358Y009780D01*
X011373Y009758D01*
X011384Y009734D01*
X011392Y009709D01*
X011396Y009682D01*
X011396Y009656D01*
X011392Y009629D01*
X011384Y009604D01*
X011373Y009580D01*
X011358Y009558D01*
X011340Y009538D01*
X011320Y009521D01*
X011297Y009507D01*
X011273Y009497D01*
X011247Y009490D01*
X011221Y009487D01*
X011194Y009488D01*
X011168Y009493D01*
X011143Y009501D01*
X011119Y009514D01*
X011098Y009529D01*
X011078Y009548D01*
X011062Y009569D01*
X011049Y009592D01*
X011040Y009617D01*
X011034Y009643D01*
X011032Y009669D01*
X009620Y010845D02*
X009620Y011059D01*
X009620Y010952D02*
X009300Y010952D01*
X009406Y010845D01*
X009353Y011213D02*
X009300Y011267D01*
X009300Y011374D01*
X009353Y011427D01*
X009567Y011213D01*
X009620Y011267D01*
X009620Y011374D01*
X009567Y011427D01*
X009353Y011427D01*
X009460Y011582D02*
X009460Y011742D01*
X009513Y011795D01*
X009567Y011795D01*
X009620Y011742D01*
X009620Y011635D01*
X009567Y011582D01*
X009460Y011582D01*
X009353Y011688D01*
X009300Y011795D01*
X009353Y011213D02*
X009567Y011213D01*
X008160Y011110D02*
X008160Y010610D01*
X007910Y010360D01*
X007410Y010360D01*
X007160Y010610D01*
X006910Y010360D01*
X006410Y010360D01*
X006160Y010610D01*
X005910Y010360D01*
X005410Y010360D01*
X005160Y010610D01*
X004910Y010360D01*
X004410Y010360D01*
X004160Y010610D01*
X004160Y011110D01*
X004410Y011360D01*
X004160Y011610D01*
X004160Y012110D01*
X004410Y012360D01*
X004910Y012360D01*
X005160Y012110D01*
X005410Y012360D01*
X005910Y012360D01*
X006160Y012110D01*
X006160Y011610D01*
X005910Y011360D01*
X005410Y011360D01*
X005160Y011610D01*
X004910Y011360D01*
X004410Y011360D01*
X004910Y011360D02*
X005160Y011110D01*
X005410Y011360D01*
X005160Y011110D02*
X005160Y010610D01*
X005910Y011360D02*
X006160Y011110D01*
X006160Y010610D01*
X006160Y011110D02*
X006410Y011360D01*
X006160Y011610D01*
X006410Y011360D02*
X006910Y011360D01*
X007160Y011610D01*
X007410Y011360D01*
X007910Y011360D01*
X008160Y011610D01*
X008160Y012110D01*
X007910Y012360D01*
X007410Y012360D01*
X007160Y012110D01*
X007160Y011610D01*
X006910Y011360D02*
X007160Y011110D01*
X007410Y011360D01*
X007160Y011110D02*
X007160Y010610D01*
X006703Y009750D02*
X006650Y009750D01*
X006650Y009537D01*
X006703Y009382D02*
X006917Y009168D01*
X006970Y009222D01*
X006970Y009328D01*
X006917Y009382D01*
X006703Y009382D01*
X006650Y009328D01*
X006650Y009222D01*
X006703Y009168D01*
X006917Y009168D01*
X006970Y009014D02*
X006970Y008800D01*
X006970Y008907D02*
X006650Y008907D01*
X006756Y008800D01*
X006144Y008666D02*
X006144Y004654D01*
X007400Y004445D02*
X007453Y004338D01*
X007560Y004232D01*
X007560Y004392D01*
X007613Y004445D01*
X007667Y004445D01*
X007720Y004392D01*
X007720Y004285D01*
X007667Y004232D01*
X007560Y004232D01*
X007453Y004077D02*
X007667Y004077D01*
X007720Y004024D01*
X007720Y003917D01*
X007667Y003863D01*
X007453Y004077D01*
X007400Y004024D01*
X007400Y003917D01*
X007453Y003863D01*
X007667Y003863D01*
X007720Y003709D02*
X007720Y003495D01*
X007720Y003602D02*
X007400Y003602D01*
X007506Y003495D01*
X004045Y004103D02*
X003992Y004050D01*
X003885Y004050D01*
X003832Y004103D01*
X004045Y004317D01*
X004045Y004103D01*
X004045Y004317D02*
X003992Y004370D01*
X003885Y004370D01*
X003832Y004317D01*
X003832Y004103D01*
X003677Y004210D02*
X003463Y004210D01*
X003624Y004370D01*
X003624Y004050D01*
X003309Y004103D02*
X003255Y004050D01*
X003148Y004050D01*
X003095Y004103D01*
X003148Y004210D02*
X003309Y004210D01*
X003309Y004103D02*
X003309Y004317D01*
X003255Y004370D01*
X003148Y004370D01*
X003095Y004317D01*
X003095Y004264D01*
X003148Y004210D01*
X002940Y004264D02*
X002940Y004317D01*
X002887Y004370D01*
X002780Y004370D01*
X002727Y004317D01*
X002572Y004370D02*
X002572Y004050D01*
X002727Y004050D02*
X002940Y004264D01*
X002940Y004050D02*
X002727Y004050D01*
X002465Y004264D02*
X002572Y004370D01*
X002465Y004264D02*
X002358Y004370D01*
X002358Y004050D01*
X002204Y004050D02*
X001990Y004050D01*
X001990Y004370D01*
X002988Y008940D02*
X002907Y009020D01*
X002907Y009180D01*
X002988Y009260D01*
X003228Y009260D01*
X003228Y009420D02*
X003228Y008940D01*
X002988Y008940D01*
X002712Y009180D02*
X002712Y009340D01*
X002632Y009420D01*
X002472Y009420D01*
X002392Y009340D01*
X002392Y009180D01*
X002472Y009100D01*
X002632Y009100D01*
X002712Y009180D01*
X002196Y009100D02*
X002196Y009340D01*
X002116Y009420D01*
X002036Y009340D01*
X001956Y009420D01*
X001876Y009340D01*
X001876Y009100D01*
X001681Y009180D02*
X001601Y009100D01*
X001441Y009100D01*
X001361Y009180D01*
X001361Y009260D01*
X001681Y009260D01*
X001681Y009340D02*
X001681Y009180D01*
X001681Y009340D02*
X001601Y009420D01*
X001441Y009420D01*
X001165Y009420D02*
X001165Y009100D01*
X001165Y009260D02*
X001005Y009100D01*
X000925Y009100D01*
X001059Y009700D02*
X001199Y009700D01*
X001269Y009770D01*
X001059Y009700D02*
X000989Y009770D01*
X000989Y009840D01*
X001269Y010120D01*
X000989Y010120D01*
X001429Y010120D02*
X001499Y010120D01*
X001499Y010050D01*
X001429Y010050D01*
X001429Y010120D01*
X001679Y010050D02*
X001679Y009770D01*
X001960Y010050D01*
X001890Y010120D01*
X001749Y010120D01*
X001679Y010050D01*
X001679Y009770D02*
X001749Y009700D01*
X001890Y009700D01*
X001960Y009770D01*
X001960Y010050D01*
X002140Y010120D02*
X002280Y009980D01*
X002210Y009980D02*
X002420Y009980D01*
X002420Y010120D02*
X002420Y009700D01*
X002210Y009700D01*
X002140Y009770D01*
X002140Y009910D01*
X002210Y009980D01*
X003179Y010240D02*
X003179Y010520D01*
X003179Y010700D02*
X003179Y010980D01*
X003319Y011120D01*
X003460Y010980D01*
X003460Y010700D01*
X003460Y010520D02*
X003460Y010240D01*
X003319Y010100D01*
X003179Y010240D01*
X003179Y010310D02*
X003460Y010310D01*
X003640Y010520D02*
X003920Y010520D01*
X003780Y010520D02*
X003780Y010100D01*
X003920Y010240D01*
X003920Y010700D02*
X003640Y010700D01*
X003710Y010840D02*
X003640Y010910D01*
X003640Y011050D01*
X003710Y011120D01*
X003850Y011120D01*
X003920Y011050D01*
X003920Y010910D02*
X003780Y010840D01*
X003710Y010840D01*
X003920Y010910D02*
X003920Y010700D01*
X003850Y011650D02*
X003710Y011650D01*
X003640Y011720D01*
X003640Y011860D02*
X003780Y011860D01*
X003640Y011860D02*
X003640Y012000D01*
X003710Y012070D01*
X003850Y012070D01*
X003920Y012000D01*
X003920Y011720D01*
X003850Y011650D01*
X003460Y011650D02*
X003460Y012070D01*
X003179Y012070D02*
X003179Y011650D01*
X002999Y011650D02*
X002789Y011650D01*
X002719Y011720D01*
X002719Y012000D01*
X002789Y012070D01*
X002999Y012070D01*
X002999Y011650D01*
X003179Y012070D02*
X003460Y011650D01*
X005160Y011610D02*
X005160Y012110D01*
X006160Y012110D02*
X006410Y012360D01*
X006910Y012360D01*
X007160Y012110D01*
X007910Y011360D02*
X008160Y011110D01*
X006703Y009750D02*
X006917Y009537D01*
X006970Y009537D01*
X005720Y009420D02*
X005720Y008940D01*
X005480Y008940D01*
X005400Y009020D01*
X005400Y009180D01*
X005480Y009260D01*
X005720Y009260D01*
X005560Y009260D02*
X005400Y009420D01*
X005204Y009340D02*
X005204Y009180D01*
X005124Y009100D01*
X004964Y009100D01*
X004884Y009180D01*
X004884Y009340D01*
X004964Y009420D01*
X005124Y009420D01*
X005204Y009340D01*
X004689Y009100D02*
X004529Y009420D01*
X004368Y009100D01*
X004173Y009180D02*
X004173Y009340D01*
X004093Y009420D01*
X003933Y009420D01*
X003853Y009260D02*
X004173Y009260D01*
X004173Y009180D02*
X004093Y009100D01*
X003933Y009100D01*
X003853Y009180D01*
X003853Y009260D01*
X003657Y009260D02*
X003497Y009100D01*
X003417Y009100D01*
X003657Y009100D02*
X003657Y009420D01*
X008000Y007950D02*
X008000Y007737D01*
X008053Y007582D02*
X008267Y007368D01*
X008320Y007422D01*
X008320Y007528D01*
X008267Y007582D01*
X008053Y007582D01*
X008000Y007528D01*
X008000Y007422D01*
X008053Y007368D01*
X008267Y007368D01*
X008320Y007214D02*
X008320Y007000D01*
X008320Y007107D02*
X008000Y007107D01*
X008106Y007000D01*
X008267Y007737D02*
X008320Y007737D01*
X008267Y007737D02*
X008053Y007950D01*
X008000Y007950D01*
X008710Y007810D02*
X009010Y007810D01*
X008860Y007660D02*
X008860Y007960D01*
X008460Y007360D02*
X008462Y007440D01*
X008468Y007519D01*
X008478Y007598D01*
X008492Y007677D01*
X008509Y007755D01*
X008531Y007832D01*
X008556Y007907D01*
X008586Y007981D01*
X008618Y008054D01*
X008655Y008125D01*
X008695Y008194D01*
X008738Y008261D01*
X008785Y008326D01*
X008834Y008388D01*
X008887Y008448D01*
X008943Y008505D01*
X009001Y008560D01*
X009062Y008611D01*
X009126Y008659D01*
X009192Y008704D01*
X009260Y008746D01*
X009330Y008784D01*
X009402Y008818D01*
X009475Y008849D01*
X009550Y008877D01*
X009627Y008900D01*
X009704Y008920D01*
X009782Y008936D01*
X009861Y008948D01*
X009940Y008956D01*
X010020Y008960D01*
X010100Y008960D01*
X010180Y008956D01*
X010259Y008948D01*
X010338Y008936D01*
X010416Y008920D01*
X010493Y008900D01*
X010570Y008877D01*
X010645Y008849D01*
X010718Y008818D01*
X010790Y008784D01*
X010860Y008746D01*
X010928Y008704D01*
X010994Y008659D01*
X011058Y008611D01*
X011119Y008560D01*
X011177Y008505D01*
X011233Y008448D01*
X011286Y008388D01*
X011335Y008326D01*
X011382Y008261D01*
X011425Y008194D01*
X011465Y008125D01*
X011502Y008054D01*
X011534Y007981D01*
X011564Y007907D01*
X011589Y007832D01*
X011611Y007755D01*
X011628Y007677D01*
X011642Y007598D01*
X011652Y007519D01*
X011658Y007440D01*
X011660Y007360D01*
X011658Y007280D01*
X011652Y007201D01*
X011642Y007122D01*
X011628Y007043D01*
X011611Y006965D01*
X011589Y006888D01*
X011564Y006813D01*
X011534Y006739D01*
X011502Y006666D01*
X011465Y006595D01*
X011425Y006526D01*
X011382Y006459D01*
X011335Y006394D01*
X011286Y006332D01*
X011233Y006272D01*
X011177Y006215D01*
X011119Y006160D01*
X011058Y006109D01*
X010994Y006061D01*
X010928Y006016D01*
X010860Y005974D01*
X010790Y005936D01*
X010718Y005902D01*
X010645Y005871D01*
X010570Y005843D01*
X010493Y005820D01*
X010416Y005800D01*
X010338Y005784D01*
X010259Y005772D01*
X010180Y005764D01*
X010100Y005760D01*
X010020Y005760D01*
X009940Y005764D01*
X009861Y005772D01*
X009782Y005784D01*
X009704Y005800D01*
X009627Y005820D01*
X009550Y005843D01*
X009475Y005871D01*
X009402Y005902D01*
X009330Y005936D01*
X009260Y005974D01*
X009192Y006016D01*
X009126Y006061D01*
X009062Y006109D01*
X009001Y006160D01*
X008943Y006215D01*
X008887Y006272D01*
X008834Y006332D01*
X008785Y006394D01*
X008738Y006459D01*
X008695Y006526D01*
X008655Y006595D01*
X008618Y006666D01*
X008586Y006739D01*
X008556Y006813D01*
X008531Y006888D01*
X008509Y006965D01*
X008492Y007043D01*
X008478Y007122D01*
X008468Y007201D01*
X008462Y007280D01*
X008460Y007360D01*
D12*
X010667Y009760D02*
X010669Y009773D01*
X010674Y009785D01*
X010683Y009795D01*
X010694Y009802D01*
X010706Y009806D01*
X010720Y009806D01*
X010732Y009802D01*
X010743Y009795D01*
X010752Y009785D01*
X010757Y009773D01*
X010759Y009760D01*
X010757Y009747D01*
X010752Y009735D01*
X010743Y009725D01*
X010732Y009718D01*
X010720Y009714D01*
X010706Y009714D01*
X010694Y009718D01*
X010683Y009725D01*
X010674Y009735D01*
X010669Y009747D01*
X010667Y009760D01*
X001410Y006110D02*
X001410Y005010D01*
X000460Y005560D01*
X001410Y006110D01*
X001260Y005560D02*
X001210Y005560D01*
X001060Y005560D02*
X000760Y005560D01*
D13*
X009860Y004660D03*
D14*
X006440Y005660D03*
X006440Y006660D03*
X006440Y007660D03*
D15*
X011087Y009623D02*
X011089Y009638D01*
X011094Y009651D01*
X011103Y009663D01*
X011114Y009673D01*
X011128Y009679D01*
X011142Y009682D01*
X011157Y009681D01*
X011171Y009676D01*
X011184Y009668D01*
X011194Y009658D01*
X011201Y009645D01*
X011205Y009630D01*
X011205Y009616D01*
X011201Y009601D01*
X011194Y009588D01*
X011184Y009578D01*
X011171Y009570D01*
X011157Y009565D01*
X011142Y009564D01*
X011128Y009567D01*
X011114Y009573D01*
X011103Y009583D01*
X011094Y009595D01*
X011089Y009608D01*
X011087Y009623D01*
M02*
