%
M48
M72
T01C0.0130
T02C0.0190
T03C0.0320
T04C0.0400
T05C0.1102
T06C0.1260
%
T01
X850Y3450
X2650Y3550
X5150Y4050
X5150Y4450
X5350Y4750
X5750Y4750
X6450Y4750
X6850Y5150
X7250Y5150
X7650Y5150
X8050Y5450
X8050Y5850
X8050Y6550
X8050Y6950
X9050Y7850
X8950Y8550
X9250Y8950
X9250Y9350
X9250Y9750
X8950Y10550
X8550Y10550
X7650Y10150
X7250Y10150
X6850Y9650
X6850Y9150
X7250Y8550
X7250Y8150
X6850Y8150
X6550Y7850
X6550Y7450
X6550Y6850
X6550Y6450
X5450Y6050
X5350Y7350
X5750Y8550
X4150Y9750
X2850Y9850
X750Y8650
X6450Y3750
X6950Y3550
X6950Y3950
X6950Y4350
X6950Y4750
X9350Y4950
X9750Y4950
X10150Y4950
X10150Y4550
X10150Y4150
X10150Y3750
X11450Y4550
X11550Y2850
X11450Y6450
X11850Y9050
X10450Y10350
X8950Y12250
X8550Y12250
X8450Y8550
X7650Y8550
X7650Y8150
T02
X4250Y8150
X4250Y7650
X4250Y7150
X4250Y6650
X4250Y6150
X4250Y5650
X4250Y5150
X4250Y4650
X3750Y4650
X3750Y5150
X3750Y5650
X3750Y6150
X3750Y6650
X3750Y7150
X3750Y7650
X3750Y8150
X3750Y8650
X3250Y8650
X3250Y8150
X3250Y7650
X3250Y7150
X3250Y6650
X3250Y6150
X3250Y5650
X3250Y5150
X3250Y4650
X2750Y4650
X2750Y5150
X2750Y5650
X2750Y6150
X2750Y6650
X2750Y7150
X2750Y7650
X2750Y8150
X2750Y8650
X2250Y8650
X2250Y8150
X2250Y7650
X2250Y7150
X2250Y6650
X2250Y6150
X2250Y5650
X2250Y5150
X2250Y4650
X1750Y4650
X1750Y5150
X1750Y5650
X1750Y6150
X1750Y6650
X1750Y7150
X1750Y7650
X1750Y8150
X1750Y8650
X4250Y8650
T03
X9150Y6250
X10150Y6250
T04
X7650Y10850
X7650Y11850
X6650Y11850
X5650Y11850
X5650Y10850
X6650Y10850
X4650Y10850
X4650Y11850
T05
X5350Y2250
X7450Y2250
X9650Y2250
X3150Y2250
T06
X1250Y1250
X1250Y11450
X11550Y11450
X11550Y1250
M30
