G75*
%MOIN*%
%OFA0B0*%
%FSLAX24Y24*%
%IPPOS*%
%LPD*%
%AMOC8*
5,1,8,0,0,1.08239X$1,22.5*
%
%ADD10C,0.0000*%
D10*
X000160Y001160D02*
X000160Y011660D01*
X000162Y011720D01*
X000167Y011781D01*
X000176Y011840D01*
X000189Y011899D01*
X000205Y011958D01*
X000225Y012015D01*
X000248Y012070D01*
X000275Y012125D01*
X000304Y012177D01*
X000337Y012228D01*
X000373Y012277D01*
X000411Y012323D01*
X000453Y012367D01*
X000497Y012409D01*
X000543Y012447D01*
X000592Y012483D01*
X000643Y012516D01*
X000695Y012545D01*
X000750Y012572D01*
X000805Y012595D01*
X000862Y012615D01*
X000921Y012631D01*
X000980Y012644D01*
X001039Y012653D01*
X001100Y012658D01*
X001160Y012660D01*
X011660Y012660D01*
X011720Y012658D01*
X011781Y012653D01*
X011840Y012644D01*
X011899Y012631D01*
X011958Y012615D01*
X012015Y012595D01*
X012070Y012572D01*
X012125Y012545D01*
X012177Y012516D01*
X012228Y012483D01*
X012277Y012447D01*
X012323Y012409D01*
X012367Y012367D01*
X012409Y012323D01*
X012447Y012277D01*
X012483Y012228D01*
X012516Y012177D01*
X012545Y012125D01*
X012572Y012070D01*
X012595Y012015D01*
X012615Y011958D01*
X012631Y011899D01*
X012644Y011840D01*
X012653Y011781D01*
X012658Y011720D01*
X012660Y011660D01*
X012660Y001160D01*
X012658Y001100D01*
X012653Y001039D01*
X012644Y000980D01*
X012631Y000921D01*
X012615Y000862D01*
X012595Y000805D01*
X012572Y000750D01*
X012545Y000695D01*
X012516Y000643D01*
X012483Y000592D01*
X012447Y000543D01*
X012409Y000497D01*
X012367Y000453D01*
X012323Y000411D01*
X012277Y000373D01*
X012228Y000337D01*
X012177Y000304D01*
X012125Y000275D01*
X012070Y000248D01*
X012015Y000225D01*
X011958Y000205D01*
X011899Y000189D01*
X011840Y000176D01*
X011781Y000167D01*
X011720Y000162D01*
X011660Y000160D01*
X001160Y000160D01*
X001100Y000162D01*
X001039Y000167D01*
X000980Y000176D01*
X000921Y000189D01*
X000862Y000205D01*
X000805Y000225D01*
X000750Y000248D01*
X000695Y000275D01*
X000643Y000304D01*
X000592Y000337D01*
X000543Y000373D01*
X000497Y000411D01*
X000453Y000453D01*
X000411Y000497D01*
X000373Y000543D01*
X000337Y000592D01*
X000304Y000643D01*
X000275Y000695D01*
X000248Y000750D01*
X000225Y000805D01*
X000205Y000862D01*
X000189Y000921D01*
X000176Y000980D01*
X000167Y001039D01*
X000162Y001100D01*
X000160Y001160D01*
X000630Y001260D02*
X000632Y001310D01*
X000638Y001360D01*
X000648Y001409D01*
X000662Y001457D01*
X000679Y001504D01*
X000700Y001549D01*
X000725Y001593D01*
X000753Y001634D01*
X000785Y001673D01*
X000819Y001710D01*
X000856Y001744D01*
X000896Y001774D01*
X000938Y001801D01*
X000982Y001825D01*
X001028Y001846D01*
X001075Y001862D01*
X001123Y001875D01*
X001173Y001884D01*
X001222Y001889D01*
X001273Y001890D01*
X001323Y001887D01*
X001372Y001880D01*
X001421Y001869D01*
X001469Y001854D01*
X001515Y001836D01*
X001560Y001814D01*
X001603Y001788D01*
X001644Y001759D01*
X001683Y001727D01*
X001719Y001692D01*
X001751Y001654D01*
X001781Y001614D01*
X001808Y001571D01*
X001831Y001527D01*
X001850Y001481D01*
X001866Y001433D01*
X001878Y001384D01*
X001886Y001335D01*
X001890Y001285D01*
X001890Y001235D01*
X001886Y001185D01*
X001878Y001136D01*
X001866Y001087D01*
X001850Y001039D01*
X001831Y000993D01*
X001808Y000949D01*
X001781Y000906D01*
X001751Y000866D01*
X001719Y000828D01*
X001683Y000793D01*
X001644Y000761D01*
X001603Y000732D01*
X001560Y000706D01*
X001515Y000684D01*
X001469Y000666D01*
X001421Y000651D01*
X001372Y000640D01*
X001323Y000633D01*
X001273Y000630D01*
X001222Y000631D01*
X001173Y000636D01*
X001123Y000645D01*
X001075Y000658D01*
X001028Y000674D01*
X000982Y000695D01*
X000938Y000719D01*
X000896Y000746D01*
X000856Y000776D01*
X000819Y000810D01*
X000785Y000847D01*
X000753Y000886D01*
X000725Y000927D01*
X000700Y000971D01*
X000679Y001016D01*
X000662Y001063D01*
X000648Y001111D01*
X000638Y001160D01*
X000632Y001210D01*
X000630Y001260D01*
X000630Y011560D02*
X000632Y011610D01*
X000638Y011660D01*
X000648Y011709D01*
X000662Y011757D01*
X000679Y011804D01*
X000700Y011849D01*
X000725Y011893D01*
X000753Y011934D01*
X000785Y011973D01*
X000819Y012010D01*
X000856Y012044D01*
X000896Y012074D01*
X000938Y012101D01*
X000982Y012125D01*
X001028Y012146D01*
X001075Y012162D01*
X001123Y012175D01*
X001173Y012184D01*
X001222Y012189D01*
X001273Y012190D01*
X001323Y012187D01*
X001372Y012180D01*
X001421Y012169D01*
X001469Y012154D01*
X001515Y012136D01*
X001560Y012114D01*
X001603Y012088D01*
X001644Y012059D01*
X001683Y012027D01*
X001719Y011992D01*
X001751Y011954D01*
X001781Y011914D01*
X001808Y011871D01*
X001831Y011827D01*
X001850Y011781D01*
X001866Y011733D01*
X001878Y011684D01*
X001886Y011635D01*
X001890Y011585D01*
X001890Y011535D01*
X001886Y011485D01*
X001878Y011436D01*
X001866Y011387D01*
X001850Y011339D01*
X001831Y011293D01*
X001808Y011249D01*
X001781Y011206D01*
X001751Y011166D01*
X001719Y011128D01*
X001683Y011093D01*
X001644Y011061D01*
X001603Y011032D01*
X001560Y011006D01*
X001515Y010984D01*
X001469Y010966D01*
X001421Y010951D01*
X001372Y010940D01*
X001323Y010933D01*
X001273Y010930D01*
X001222Y010931D01*
X001173Y010936D01*
X001123Y010945D01*
X001075Y010958D01*
X001028Y010974D01*
X000982Y010995D01*
X000938Y011019D01*
X000896Y011046D01*
X000856Y011076D01*
X000819Y011110D01*
X000785Y011147D01*
X000753Y011186D01*
X000725Y011227D01*
X000700Y011271D01*
X000679Y011316D01*
X000662Y011363D01*
X000648Y011411D01*
X000638Y011460D01*
X000632Y011510D01*
X000630Y011560D01*
X010930Y011560D02*
X010932Y011610D01*
X010938Y011660D01*
X010948Y011709D01*
X010962Y011757D01*
X010979Y011804D01*
X011000Y011849D01*
X011025Y011893D01*
X011053Y011934D01*
X011085Y011973D01*
X011119Y012010D01*
X011156Y012044D01*
X011196Y012074D01*
X011238Y012101D01*
X011282Y012125D01*
X011328Y012146D01*
X011375Y012162D01*
X011423Y012175D01*
X011473Y012184D01*
X011522Y012189D01*
X011573Y012190D01*
X011623Y012187D01*
X011672Y012180D01*
X011721Y012169D01*
X011769Y012154D01*
X011815Y012136D01*
X011860Y012114D01*
X011903Y012088D01*
X011944Y012059D01*
X011983Y012027D01*
X012019Y011992D01*
X012051Y011954D01*
X012081Y011914D01*
X012108Y011871D01*
X012131Y011827D01*
X012150Y011781D01*
X012166Y011733D01*
X012178Y011684D01*
X012186Y011635D01*
X012190Y011585D01*
X012190Y011535D01*
X012186Y011485D01*
X012178Y011436D01*
X012166Y011387D01*
X012150Y011339D01*
X012131Y011293D01*
X012108Y011249D01*
X012081Y011206D01*
X012051Y011166D01*
X012019Y011128D01*
X011983Y011093D01*
X011944Y011061D01*
X011903Y011032D01*
X011860Y011006D01*
X011815Y010984D01*
X011769Y010966D01*
X011721Y010951D01*
X011672Y010940D01*
X011623Y010933D01*
X011573Y010930D01*
X011522Y010931D01*
X011473Y010936D01*
X011423Y010945D01*
X011375Y010958D01*
X011328Y010974D01*
X011282Y010995D01*
X011238Y011019D01*
X011196Y011046D01*
X011156Y011076D01*
X011119Y011110D01*
X011085Y011147D01*
X011053Y011186D01*
X011025Y011227D01*
X011000Y011271D01*
X010979Y011316D01*
X010962Y011363D01*
X010948Y011411D01*
X010938Y011460D01*
X010932Y011510D01*
X010930Y011560D01*
X010930Y001260D02*
X010932Y001310D01*
X010938Y001360D01*
X010948Y001409D01*
X010962Y001457D01*
X010979Y001504D01*
X011000Y001549D01*
X011025Y001593D01*
X011053Y001634D01*
X011085Y001673D01*
X011119Y001710D01*
X011156Y001744D01*
X011196Y001774D01*
X011238Y001801D01*
X011282Y001825D01*
X011328Y001846D01*
X011375Y001862D01*
X011423Y001875D01*
X011473Y001884D01*
X011522Y001889D01*
X011573Y001890D01*
X011623Y001887D01*
X011672Y001880D01*
X011721Y001869D01*
X011769Y001854D01*
X011815Y001836D01*
X011860Y001814D01*
X011903Y001788D01*
X011944Y001759D01*
X011983Y001727D01*
X012019Y001692D01*
X012051Y001654D01*
X012081Y001614D01*
X012108Y001571D01*
X012131Y001527D01*
X012150Y001481D01*
X012166Y001433D01*
X012178Y001384D01*
X012186Y001335D01*
X012190Y001285D01*
X012190Y001235D01*
X012186Y001185D01*
X012178Y001136D01*
X012166Y001087D01*
X012150Y001039D01*
X012131Y000993D01*
X012108Y000949D01*
X012081Y000906D01*
X012051Y000866D01*
X012019Y000828D01*
X011983Y000793D01*
X011944Y000761D01*
X011903Y000732D01*
X011860Y000706D01*
X011815Y000684D01*
X011769Y000666D01*
X011721Y000651D01*
X011672Y000640D01*
X011623Y000633D01*
X011573Y000630D01*
X011522Y000631D01*
X011473Y000636D01*
X011423Y000645D01*
X011375Y000658D01*
X011328Y000674D01*
X011282Y000695D01*
X011238Y000719D01*
X011196Y000746D01*
X011156Y000776D01*
X011119Y000810D01*
X011085Y000847D01*
X011053Y000886D01*
X011025Y000927D01*
X011000Y000971D01*
X010979Y001016D01*
X010962Y001063D01*
X010948Y001111D01*
X010938Y001160D01*
X010932Y001210D01*
X010930Y001260D01*
M02*
