G75*
%MOIN*%
%OFA0B0*%
%FSLAX24Y24*%
%IPPOS*%
%LPD*%
%AMOC8*
5,1,8,0,0,1.08239X$1,22.5*
%
%ADD10C,0.0070*%
%ADD11C,0.0050*%
%ADD12C,0.0060*%
%ADD13C,0.0091*%
%ADD14C,0.0080*%
%ADD15R,0.0400X0.1500*%
%ADD16R,0.0660X0.0300*%
%ADD17C,0.0110*%
%ADD18C,0.0100*%
D10*
X002896Y009006D02*
X002978Y008925D01*
X003223Y008925D01*
X003223Y009415D01*
X003223Y009252D02*
X002978Y009252D01*
X002896Y009170D01*
X002896Y009006D01*
X002707Y009170D02*
X002707Y009333D01*
X002625Y009415D01*
X002462Y009415D01*
X002380Y009333D01*
X002380Y009170D01*
X002462Y009088D01*
X002625Y009088D01*
X002707Y009170D01*
X002191Y009088D02*
X002191Y009333D01*
X002110Y009415D01*
X002028Y009333D01*
X001946Y009415D01*
X001865Y009333D01*
X001865Y009088D01*
X001676Y009170D02*
X001676Y009333D01*
X001594Y009415D01*
X001431Y009415D01*
X001349Y009252D02*
X001676Y009252D01*
X001676Y009170D02*
X001594Y009088D01*
X001431Y009088D01*
X001349Y009170D01*
X001349Y009252D01*
X001160Y009252D02*
X000997Y009088D01*
X000915Y009088D01*
X001160Y009088D02*
X001160Y009415D01*
X003407Y009088D02*
X003489Y009088D01*
X003652Y009252D01*
X003652Y009415D02*
X003652Y009088D01*
X003841Y009170D02*
X003841Y009252D01*
X004168Y009252D01*
X004168Y009333D02*
X004168Y009170D01*
X004086Y009088D01*
X003923Y009088D01*
X003841Y009170D01*
X003923Y009415D02*
X004086Y009415D01*
X004168Y009333D01*
X004357Y009088D02*
X004520Y009415D01*
X004684Y009088D01*
X004872Y009170D02*
X004954Y009088D01*
X005118Y009088D01*
X005199Y009170D01*
X005199Y009333D01*
X005118Y009415D01*
X004954Y009415D01*
X004872Y009333D01*
X004872Y009170D01*
X005388Y009170D02*
X005388Y009006D01*
X005470Y008925D01*
X005715Y008925D01*
X005715Y009415D01*
X005715Y009252D02*
X005470Y009252D01*
X005388Y009170D01*
X005552Y009252D02*
X005388Y009415D01*
D11*
X006625Y009418D02*
X006625Y009302D01*
X006683Y009243D01*
X006917Y009243D01*
X006683Y009477D01*
X006917Y009477D01*
X006975Y009418D01*
X006975Y009302D01*
X006917Y009243D01*
X006975Y009109D02*
X006975Y008875D01*
X006975Y008992D02*
X006625Y008992D01*
X006741Y008875D01*
X006625Y009418D02*
X006683Y009477D01*
X006625Y009612D02*
X006625Y009845D01*
X006683Y009845D01*
X006917Y009612D01*
X006975Y009612D01*
X009175Y011037D02*
X009525Y011037D01*
X009525Y010920D02*
X009525Y011154D01*
X009467Y011288D02*
X009233Y011522D01*
X009467Y011522D01*
X009525Y011464D01*
X009525Y011347D01*
X009467Y011288D01*
X009233Y011288D01*
X009175Y011347D01*
X009175Y011464D01*
X009233Y011522D01*
X009350Y011657D02*
X009350Y011890D01*
X009525Y011832D02*
X009175Y011832D01*
X009350Y011657D01*
X009175Y011037D02*
X009291Y010920D01*
X011491Y009855D02*
X011550Y009913D01*
X011725Y009913D01*
X011725Y009738D01*
X011667Y009680D01*
X011608Y009738D01*
X011608Y009913D01*
X011491Y009855D02*
X011491Y009738D01*
X011491Y009545D02*
X011491Y009370D01*
X011550Y009312D01*
X011608Y009370D01*
X011608Y009487D01*
X011667Y009545D01*
X011725Y009487D01*
X011725Y009312D01*
X011550Y009177D02*
X011550Y008943D01*
X011491Y008809D02*
X011783Y008809D01*
X011842Y008750D01*
X011842Y008692D01*
X011725Y008633D02*
X011667Y008575D01*
X011491Y008575D01*
X011550Y008440D02*
X011491Y008382D01*
X011491Y008207D01*
X011375Y008207D02*
X011725Y008207D01*
X011725Y008382D01*
X011667Y008440D01*
X011550Y008440D01*
X011725Y008633D02*
X011725Y008809D01*
X012091Y008958D02*
X012091Y009133D01*
X012150Y009268D02*
X012267Y009268D01*
X012325Y009326D01*
X012325Y009443D01*
X012267Y009502D01*
X012150Y009502D01*
X012091Y009443D01*
X012091Y009326D01*
X012150Y009268D01*
X012325Y009133D02*
X012325Y008958D01*
X012267Y008900D01*
X012150Y008900D01*
X012091Y008958D01*
X012267Y008774D02*
X012325Y008774D01*
X012325Y008716D01*
X012267Y008716D01*
X012267Y008774D01*
X012267Y008581D02*
X012208Y008522D01*
X012208Y008406D01*
X012150Y008347D01*
X012091Y008406D01*
X012091Y008581D01*
X012267Y008581D02*
X012325Y008522D01*
X012325Y008347D01*
X012325Y008218D02*
X012267Y008160D01*
X012033Y008160D01*
X012091Y008102D02*
X012091Y008218D01*
X012150Y007967D02*
X012325Y007967D01*
X012150Y007967D02*
X012091Y007909D01*
X012091Y007792D01*
X012150Y007733D01*
X012091Y007599D02*
X012091Y007423D01*
X012150Y007365D01*
X012267Y007365D01*
X012325Y007423D01*
X012325Y007599D01*
X012383Y007599D02*
X012091Y007599D01*
X011975Y007733D02*
X012325Y007733D01*
X012383Y007599D02*
X012442Y007540D01*
X012442Y007482D01*
X012325Y007230D02*
X012091Y007230D01*
X012091Y006997D02*
X012267Y006997D01*
X012325Y007055D01*
X012325Y007230D01*
X012267Y006862D02*
X012150Y006862D01*
X012091Y006804D01*
X012091Y006687D01*
X012150Y006628D01*
X012267Y006628D01*
X012325Y006687D01*
X012325Y006804D01*
X012267Y006862D01*
X012325Y006494D02*
X012150Y006494D01*
X012091Y006435D01*
X012091Y006319D01*
X012150Y006260D01*
X012091Y006131D02*
X012091Y006015D01*
X012033Y006073D02*
X012267Y006073D01*
X012325Y006131D01*
X012325Y006260D02*
X011975Y006260D01*
X012150Y005880D02*
X012150Y005646D01*
X012091Y005517D02*
X012091Y005401D01*
X012033Y005459D02*
X012267Y005459D01*
X012325Y005517D01*
X012267Y005266D02*
X012150Y005266D01*
X012091Y005208D01*
X012091Y005091D01*
X012150Y005032D01*
X012267Y005032D01*
X012325Y005091D01*
X012325Y005208D01*
X012267Y005266D01*
X012267Y004898D02*
X012150Y004898D01*
X012091Y004839D01*
X012091Y004664D01*
X011975Y004664D02*
X012325Y004664D01*
X012325Y004839D01*
X012267Y004898D01*
X012267Y004538D02*
X012325Y004538D01*
X012325Y004480D01*
X012267Y004480D01*
X012267Y004538D01*
X012267Y004345D02*
X012091Y004345D01*
X012267Y004345D02*
X012325Y004287D01*
X012267Y004228D01*
X012325Y004170D01*
X012267Y004112D01*
X012091Y004112D01*
X012091Y003977D02*
X012267Y003977D01*
X012325Y003918D01*
X012267Y003860D01*
X012325Y003802D01*
X012267Y003743D01*
X012091Y003743D01*
X012091Y003609D02*
X012267Y003609D01*
X012325Y003550D01*
X012267Y003492D01*
X012325Y003433D01*
X012267Y003375D01*
X012091Y003375D01*
X011598Y003592D02*
X011598Y003825D01*
X011598Y003592D02*
X011481Y003475D01*
X011364Y003592D01*
X011364Y003825D01*
X011229Y003825D02*
X010996Y003825D01*
X010996Y003650D01*
X011113Y003709D01*
X011171Y003709D01*
X011229Y003650D01*
X011229Y003533D01*
X011171Y003475D01*
X011054Y003475D01*
X010996Y003533D01*
X010870Y003533D02*
X010870Y003475D01*
X010812Y003475D01*
X010812Y003533D01*
X010870Y003533D01*
X010677Y003533D02*
X010677Y003650D01*
X010618Y003709D01*
X010560Y003709D01*
X010443Y003650D01*
X010443Y003825D01*
X010677Y003825D01*
X010677Y003533D02*
X010618Y003475D01*
X010502Y003475D01*
X010443Y003533D01*
X010309Y003475D02*
X010075Y003475D01*
X010309Y003709D01*
X010309Y003767D01*
X010250Y003825D01*
X010133Y003825D01*
X010075Y003767D01*
X009450Y003400D02*
X007650Y003400D01*
X006390Y003700D02*
X006157Y003700D01*
X006332Y003875D01*
X006332Y003525D01*
X006022Y003583D02*
X006022Y003817D01*
X005788Y003583D01*
X005847Y003525D01*
X005964Y003525D01*
X006022Y003583D01*
X005788Y003583D02*
X005788Y003817D01*
X005847Y003875D01*
X005964Y003875D01*
X006022Y003817D01*
X005654Y003525D02*
X005420Y003525D01*
X005537Y003525D02*
X005537Y003875D01*
X005420Y003759D01*
X004040Y004083D02*
X003982Y004025D01*
X003865Y004025D01*
X003807Y004083D01*
X004040Y004317D01*
X004040Y004083D01*
X003807Y004083D02*
X003807Y004317D01*
X003865Y004375D01*
X003982Y004375D01*
X004040Y004317D01*
X003672Y004200D02*
X003438Y004200D01*
X003614Y004375D01*
X003614Y004025D01*
X003304Y004083D02*
X003304Y004317D01*
X003245Y004375D01*
X003128Y004375D01*
X003070Y004317D01*
X003070Y004259D01*
X003128Y004200D01*
X003304Y004200D01*
X003304Y004083D02*
X003245Y004025D01*
X003128Y004025D01*
X003070Y004083D01*
X002935Y004025D02*
X002702Y004025D01*
X002935Y004259D01*
X002935Y004317D01*
X002877Y004375D01*
X002760Y004375D01*
X002702Y004317D01*
X002567Y004375D02*
X002567Y004025D01*
X002333Y004025D02*
X002333Y004375D01*
X002450Y004259D01*
X002567Y004375D01*
X002199Y004025D02*
X001965Y004025D01*
X001965Y004375D01*
X007650Y004900D02*
X009450Y004900D01*
X010325Y005200D02*
X010559Y005200D01*
X010693Y005083D02*
X010693Y005025D01*
X010693Y005083D02*
X010927Y005317D01*
X010927Y005375D01*
X010693Y005375D01*
X010500Y005375D02*
X010325Y005200D01*
X010500Y005025D02*
X010500Y005375D01*
X011062Y005200D02*
X011062Y005083D01*
X011120Y005025D01*
X011237Y005025D01*
X011295Y005083D01*
X011295Y005142D01*
X011237Y005200D01*
X011062Y005200D01*
X011178Y005317D01*
X011295Y005375D01*
X011550Y007102D02*
X011491Y007160D01*
X011491Y007335D01*
X011550Y007470D02*
X011491Y007528D01*
X011491Y007704D01*
X011550Y007838D02*
X011550Y008072D01*
X011725Y007704D02*
X011725Y007528D01*
X011667Y007470D01*
X011550Y007470D01*
X011725Y007335D02*
X011725Y007160D01*
X011667Y007102D01*
X011550Y007102D01*
X010960Y008340D02*
X011090Y008420D01*
X011090Y008640D01*
X010960Y008740D01*
X010960Y008340D01*
X010960Y008347D02*
X010971Y008347D01*
X010960Y008395D02*
X011049Y008395D01*
X011090Y008444D02*
X010960Y008444D01*
X010960Y008492D02*
X011090Y008492D01*
X011090Y008541D02*
X010960Y008541D01*
X010960Y008589D02*
X011090Y008589D01*
X011090Y008638D02*
X010960Y008638D01*
X010960Y008686D02*
X011030Y008686D01*
X010967Y008735D02*
X010960Y008735D01*
X012091Y009636D02*
X012091Y009695D01*
X012150Y009753D01*
X012091Y009811D01*
X012150Y009870D01*
X012325Y009870D01*
X012325Y009753D02*
X012150Y009753D01*
X012091Y009636D02*
X012325Y009636D01*
D12*
X002672Y000530D02*
X002599Y000603D01*
X002599Y000897D01*
X002672Y000970D01*
X002819Y000970D01*
X002892Y000897D01*
X003059Y000970D02*
X003353Y000530D01*
X003353Y000970D01*
X003520Y000970D02*
X003740Y000970D01*
X003813Y000897D01*
X003813Y000603D01*
X003740Y000530D01*
X003520Y000530D01*
X003520Y000970D01*
X003059Y000970D02*
X003059Y000530D01*
X002892Y000603D02*
X002892Y000750D01*
X002746Y000750D01*
X002892Y000603D02*
X002819Y000530D01*
X002672Y000530D01*
X004699Y000530D02*
X004992Y000530D01*
X005159Y000603D02*
X005233Y000530D01*
X005379Y000530D01*
X005453Y000603D01*
X005453Y000677D01*
X005379Y000750D01*
X005233Y000750D01*
X005159Y000824D01*
X005159Y000897D01*
X005233Y000970D01*
X005379Y000970D01*
X005453Y000897D01*
X005620Y000897D02*
X005620Y000603D01*
X005693Y000530D01*
X005840Y000530D01*
X005913Y000603D01*
X005913Y000897D02*
X005840Y000970D01*
X005693Y000970D01*
X005620Y000897D01*
X004992Y000970D02*
X004699Y000970D01*
X004699Y000530D01*
X004699Y000750D02*
X004846Y000750D01*
X006952Y000677D02*
X007099Y000530D01*
X007246Y000677D01*
X007246Y000970D01*
X007413Y000970D02*
X007559Y000970D01*
X007486Y000970D02*
X007486Y000530D01*
X007413Y000530D02*
X007559Y000530D01*
X007720Y000530D02*
X007720Y000970D01*
X008013Y000530D01*
X008013Y000970D01*
X008999Y000897D02*
X008999Y000603D01*
X009072Y000530D01*
X009219Y000530D01*
X009292Y000603D01*
X009292Y000750D01*
X009146Y000750D01*
X009292Y000897D02*
X009219Y000970D01*
X009072Y000970D01*
X008999Y000897D01*
X009459Y000970D02*
X009459Y000530D01*
X009753Y000530D02*
X009459Y000970D01*
X009753Y000970D02*
X009753Y000530D01*
X009920Y000530D02*
X010140Y000530D01*
X010213Y000603D01*
X010213Y000897D01*
X010140Y000970D01*
X009920Y000970D01*
X009920Y000530D01*
X006952Y000677D02*
X006952Y000970D01*
X008550Y006250D02*
X008552Y006316D01*
X008558Y006381D01*
X008568Y006446D01*
X008581Y006511D01*
X008599Y006574D01*
X008620Y006637D01*
X008645Y006697D01*
X008674Y006757D01*
X008706Y006814D01*
X008741Y006870D01*
X008780Y006923D01*
X008822Y006974D01*
X008866Y007022D01*
X008914Y007067D01*
X008964Y007110D01*
X009017Y007149D01*
X009072Y007186D01*
X009129Y007219D01*
X009188Y007248D01*
X009248Y007274D01*
X009310Y007296D01*
X009373Y007315D01*
X009437Y007329D01*
X009502Y007340D01*
X009568Y007347D01*
X009634Y007350D01*
X009699Y007349D01*
X009765Y007344D01*
X009830Y007335D01*
X009895Y007322D01*
X009958Y007306D01*
X010021Y007286D01*
X010082Y007261D01*
X010142Y007234D01*
X010200Y007203D01*
X010256Y007168D01*
X010310Y007130D01*
X010361Y007089D01*
X010410Y007045D01*
X010456Y006998D01*
X010500Y006949D01*
X010540Y006897D01*
X010577Y006842D01*
X010611Y006786D01*
X010641Y006727D01*
X010668Y006667D01*
X010691Y006606D01*
X010710Y006543D01*
X010726Y006479D01*
X010738Y006414D01*
X010746Y006349D01*
X010750Y006283D01*
X010750Y006217D01*
X010746Y006151D01*
X010738Y006086D01*
X010726Y006021D01*
X010710Y005957D01*
X010691Y005894D01*
X010668Y005833D01*
X010641Y005773D01*
X010611Y005714D01*
X010577Y005658D01*
X010540Y005603D01*
X010500Y005551D01*
X010456Y005502D01*
X010410Y005455D01*
X010361Y005411D01*
X010310Y005370D01*
X010256Y005332D01*
X010200Y005297D01*
X010142Y005266D01*
X010082Y005239D01*
X010021Y005214D01*
X009958Y005194D01*
X009895Y005178D01*
X009830Y005165D01*
X009765Y005156D01*
X009699Y005151D01*
X009634Y005150D01*
X009568Y005153D01*
X009502Y005160D01*
X009437Y005171D01*
X009373Y005185D01*
X009310Y005204D01*
X009248Y005226D01*
X009188Y005252D01*
X009129Y005281D01*
X009072Y005314D01*
X009017Y005351D01*
X008964Y005390D01*
X008914Y005433D01*
X008866Y005478D01*
X008822Y005526D01*
X008780Y005577D01*
X008741Y005630D01*
X008706Y005686D01*
X008674Y005743D01*
X008645Y005803D01*
X008620Y005863D01*
X008599Y005926D01*
X008581Y005989D01*
X008568Y006054D01*
X008558Y006119D01*
X008552Y006184D01*
X008550Y006250D01*
X009000Y006600D02*
X009000Y006750D01*
X009000Y006900D01*
X009000Y006750D02*
X008850Y006750D01*
X009000Y006750D02*
X009150Y006750D01*
X007900Y010350D02*
X007400Y010350D01*
X007150Y010600D01*
X006900Y010350D01*
X006400Y010350D01*
X006150Y010600D01*
X005900Y010350D01*
X005400Y010350D01*
X005150Y010600D01*
X004900Y010350D01*
X004400Y010350D01*
X004150Y010600D01*
X004150Y011100D01*
X004400Y011350D01*
X004150Y011600D01*
X004150Y012100D01*
X004400Y012350D01*
X004900Y012350D01*
X005150Y012100D01*
X005400Y012350D01*
X005900Y012350D01*
X006150Y012100D01*
X006150Y011600D01*
X005900Y011350D01*
X005400Y011350D01*
X005150Y011600D01*
X004900Y011350D01*
X004400Y011350D01*
X004900Y011350D01*
X005150Y011100D01*
X005400Y011350D01*
X005900Y011350D01*
X006150Y011100D01*
X006150Y010600D01*
X006150Y011100D02*
X006400Y011350D01*
X006150Y011600D01*
X006400Y011350D02*
X006900Y011350D01*
X007150Y011600D01*
X007400Y011350D01*
X007900Y011350D01*
X008150Y011600D01*
X008150Y012100D01*
X007900Y012350D01*
X007400Y012350D01*
X007150Y012100D01*
X007150Y011600D01*
X006900Y011350D02*
X007150Y011100D01*
X007400Y011350D01*
X007900Y011350D01*
X008150Y011100D01*
X008150Y010600D01*
X007900Y010350D01*
X007150Y010600D02*
X007150Y011100D01*
X006900Y011350D02*
X006400Y011350D01*
X006150Y012100D02*
X006400Y012350D01*
X006900Y012350D01*
X007150Y012100D01*
X005150Y012100D02*
X005150Y011600D01*
X005150Y011100D02*
X005150Y010600D01*
X003920Y010680D02*
X003920Y010900D01*
X003773Y010826D01*
X003700Y010826D01*
X003626Y010900D01*
X003626Y011047D01*
X003700Y011120D01*
X003847Y011120D01*
X003920Y011047D01*
X003920Y010680D02*
X003626Y010680D01*
X003626Y010520D02*
X003920Y010520D01*
X003773Y010520D02*
X003773Y010080D01*
X003920Y010226D01*
X003460Y010226D02*
X003460Y010520D01*
X003460Y010680D02*
X003460Y010973D01*
X003313Y011120D01*
X003166Y010973D01*
X003166Y010680D01*
X003166Y010520D02*
X003166Y010226D01*
X003313Y010080D01*
X003460Y010226D01*
X003460Y010300D02*
X003166Y010300D01*
X002420Y010120D02*
X002420Y009680D01*
X002200Y009680D01*
X002126Y009753D01*
X002126Y009900D01*
X002200Y009973D01*
X002420Y009973D01*
X002273Y009973D02*
X002126Y010120D01*
X001960Y010047D02*
X001666Y009753D01*
X001666Y010047D01*
X001739Y010120D01*
X001886Y010120D01*
X001960Y010047D01*
X001960Y009753D01*
X001886Y009680D01*
X001739Y009680D01*
X001666Y009753D01*
X001499Y010047D02*
X001426Y010047D01*
X001426Y010120D01*
X001499Y010120D01*
X001499Y010047D01*
X001269Y010047D02*
X001196Y010120D01*
X001049Y010120D01*
X000975Y010047D01*
X000975Y009973D01*
X001049Y009900D01*
X001122Y009900D01*
X001049Y009900D02*
X000975Y009826D01*
X000975Y009753D01*
X001049Y009680D01*
X001196Y009680D01*
X001269Y009753D01*
X002779Y011630D02*
X002999Y011630D01*
X002999Y012070D01*
X002779Y012070D01*
X002706Y011997D01*
X002706Y011703D01*
X002779Y011630D01*
X003166Y011630D02*
X003166Y012070D01*
X003460Y011630D01*
X003460Y012070D01*
X003626Y011997D02*
X003626Y011850D01*
X003773Y011850D01*
X003626Y011997D02*
X003700Y012070D01*
X003847Y012070D01*
X003920Y011997D01*
X003920Y011703D01*
X003847Y011630D01*
X003700Y011630D01*
X003626Y011703D01*
D13*
X001400Y006100D02*
X001400Y005000D01*
X000450Y005550D01*
X001400Y006100D01*
X001250Y005550D02*
X001200Y005550D01*
X001050Y005550D02*
X000750Y005550D01*
D14*
X000780Y006490D02*
X001360Y006490D01*
X001070Y006490D02*
X001070Y006877D01*
X000780Y006877D02*
X001360Y006877D01*
X001263Y007098D02*
X001360Y007194D01*
X001360Y007388D01*
X001263Y007485D01*
X000876Y007485D01*
X000780Y007388D01*
X000780Y007194D01*
X000876Y007098D01*
X001263Y007098D01*
X000780Y007705D02*
X000780Y008092D01*
X000780Y007899D02*
X001360Y007899D01*
X006134Y008656D02*
X006134Y004644D01*
D15*
X008350Y004150D03*
D16*
X006430Y005650D03*
X006430Y006650D03*
X006430Y007650D03*
D17*
X010550Y008570D02*
X010525Y008559D01*
X010502Y008545D01*
X010481Y008527D01*
X010463Y008507D01*
X010447Y008485D01*
X010435Y008461D01*
X010427Y008435D01*
X010422Y008408D01*
X010421Y008381D01*
X010424Y008354D01*
X010430Y008328D01*
X010440Y008302D01*
X010454Y008279D01*
X010471Y008257D01*
X010490Y008239D01*
X010512Y008223D01*
X010536Y008210D01*
X010561Y008201D01*
X010588Y008195D01*
X010615Y008193D01*
X010642Y008195D01*
X010669Y008201D01*
X010694Y008210D01*
X010718Y008223D01*
X010740Y008239D01*
X010759Y008257D01*
X010776Y008279D01*
X010790Y008302D01*
X010800Y008328D01*
X010806Y008354D01*
X010809Y008381D01*
X010808Y008408D01*
X010803Y008435D01*
X010795Y008461D01*
X010783Y008485D01*
X010767Y008507D01*
X010749Y008527D01*
X010728Y008545D01*
X010705Y008559D01*
X010680Y008570D01*
X010497Y008425D02*
X010499Y008448D01*
X010505Y008470D01*
X010514Y008492D01*
X010527Y008511D01*
X010542Y008528D01*
X010560Y008542D01*
X010581Y008553D01*
X010603Y008561D01*
X010625Y008565D01*
X010649Y008565D01*
X010671Y008561D01*
X010693Y008553D01*
X010714Y008542D01*
X010732Y008528D01*
X010747Y008511D01*
X010760Y008492D01*
X010769Y008470D01*
X010775Y008448D01*
X010777Y008425D01*
X010775Y008402D01*
X010769Y008380D01*
X010760Y008358D01*
X010747Y008339D01*
X010732Y008322D01*
X010714Y008308D01*
X010693Y008297D01*
X010671Y008289D01*
X010649Y008285D01*
X010625Y008285D01*
X010603Y008289D01*
X010581Y008297D01*
X010560Y008308D01*
X010542Y008322D01*
X010527Y008339D01*
X010514Y008358D01*
X010505Y008380D01*
X010499Y008402D01*
X010497Y008425D01*
X010497Y008715D02*
X010499Y008738D01*
X010505Y008760D01*
X010514Y008782D01*
X010527Y008801D01*
X010542Y008818D01*
X010560Y008832D01*
X010581Y008843D01*
X010603Y008851D01*
X010625Y008855D01*
X010649Y008855D01*
X010671Y008851D01*
X010693Y008843D01*
X010714Y008832D01*
X010732Y008818D01*
X010747Y008801D01*
X010760Y008782D01*
X010769Y008760D01*
X010775Y008738D01*
X010777Y008715D01*
X010775Y008692D01*
X010769Y008670D01*
X010760Y008648D01*
X010747Y008629D01*
X010732Y008612D01*
X010714Y008598D01*
X010693Y008587D01*
X010671Y008579D01*
X010649Y008575D01*
X010625Y008575D01*
X010603Y008579D01*
X010581Y008587D01*
X010560Y008598D01*
X010542Y008612D01*
X010527Y008629D01*
X010514Y008648D01*
X010505Y008670D01*
X010499Y008692D01*
X010497Y008715D01*
X010550Y008580D02*
X010525Y008591D01*
X010502Y008605D01*
X010481Y008623D01*
X010463Y008643D01*
X010447Y008665D01*
X010435Y008689D01*
X010427Y008715D01*
X010422Y008742D01*
X010421Y008769D01*
X010424Y008796D01*
X010430Y008822D01*
X010440Y008848D01*
X010454Y008871D01*
X010471Y008893D01*
X010490Y008911D01*
X010512Y008927D01*
X010536Y008940D01*
X010561Y008949D01*
X010588Y008955D01*
X010615Y008957D01*
X010642Y008955D01*
X010669Y008949D01*
X010694Y008940D01*
X010718Y008927D01*
X010740Y008911D01*
X010759Y008893D01*
X010776Y008871D01*
X010790Y008848D01*
X010800Y008822D01*
X010806Y008796D01*
X010809Y008769D01*
X010808Y008742D01*
X010803Y008715D01*
X010795Y008689D01*
X010783Y008665D01*
X010767Y008643D01*
X010749Y008623D01*
X010728Y008605D01*
X010705Y008591D01*
X010680Y008580D01*
D18*
X010400Y009161D02*
X010310Y009158D01*
X010222Y009140D01*
X010137Y009109D01*
X010059Y009063D01*
X009990Y009006D01*
X009931Y008938D01*
X009884Y008861D01*
X009850Y008778D01*
X009830Y008690D01*
X009820Y008690D01*
X009793Y008727D01*
X009758Y008756D01*
X009718Y008777D01*
X009674Y008788D01*
X009629Y008789D01*
X009584Y008780D01*
X009543Y008761D01*
X009507Y008733D01*
X009478Y008698D01*
X009458Y008657D01*
X009448Y008613D01*
X009448Y008567D01*
X009458Y008523D01*
X009478Y008482D01*
X009507Y008447D01*
X009543Y008419D01*
X009584Y008400D01*
X009629Y008391D01*
X009674Y008392D01*
X009718Y008403D01*
X009758Y008424D01*
X009835Y008424D01*
X009840Y008400D02*
X009820Y008490D01*
X009793Y008453D01*
X009758Y008424D01*
X009840Y008400D02*
X009874Y008315D01*
X009922Y008237D01*
X009982Y008168D01*
X010053Y008109D01*
X010132Y008063D01*
X010218Y008030D01*
X010308Y008012D01*
X010400Y008009D01*
X011174Y008009D01*
X011245Y007920D01*
X011020Y007695D01*
X010795Y007871D01*
X010722Y007830D01*
X010644Y007797D01*
X010563Y007773D01*
X010522Y007489D01*
X010198Y007489D01*
X010167Y007783D01*
X010052Y007823D01*
X009945Y007881D01*
X009700Y007705D01*
X009495Y007910D01*
X009671Y008175D01*
X009618Y008277D01*
X009583Y008387D01*
X009279Y008428D01*
X009279Y008742D01*
X009563Y008783D01*
X009603Y008898D01*
X009661Y009005D01*
X009495Y009240D01*
X009710Y009465D01*
X009955Y009289D01*
X010062Y009342D01*
X010177Y009377D01*
X010208Y009671D01*
X010522Y009671D01*
X010573Y009377D01*
X010693Y009343D01*
X010805Y009289D01*
X011030Y009455D01*
X011245Y009240D01*
X011194Y009161D01*
X010400Y009161D01*
X010151Y009114D02*
X009584Y009114D01*
X009515Y009212D02*
X011227Y009212D01*
X011174Y009311D02*
X010835Y009311D01*
X010760Y009311D02*
X009998Y009311D01*
X009924Y009311D02*
X009563Y009311D01*
X009657Y009409D02*
X009788Y009409D01*
X010180Y009409D02*
X010568Y009409D01*
X010551Y009508D02*
X010190Y009508D01*
X010201Y009606D02*
X010534Y009606D01*
X010968Y009409D02*
X011076Y009409D01*
X010001Y009015D02*
X009654Y009015D01*
X009613Y008917D02*
X009918Y008917D01*
X009866Y008818D02*
X009575Y008818D01*
X009496Y008720D02*
X009279Y008720D01*
X009279Y008621D02*
X009450Y008621D01*
X009459Y008523D02*
X009279Y008523D01*
X009306Y008424D02*
X009537Y008424D01*
X009602Y008326D02*
X009870Y008326D01*
X009931Y008227D02*
X009644Y008227D01*
X009640Y008129D02*
X010030Y008129D01*
X010220Y008030D02*
X009575Y008030D01*
X009509Y007932D02*
X011236Y007932D01*
X011158Y007833D02*
X010844Y007833D01*
X010727Y007833D02*
X010033Y007833D01*
X009878Y007833D02*
X009572Y007833D01*
X009671Y007735D02*
X009741Y007735D01*
X010172Y007735D02*
X010558Y007735D01*
X010544Y007636D02*
X010182Y007636D01*
X010193Y007538D02*
X010529Y007538D01*
X010969Y007735D02*
X011059Y007735D01*
X009837Y008720D02*
X009798Y008720D01*
M02*
