%
M48
M72
T01C0.0130
T02C0.0190
T03C0.0320
T04C0.0400
T05C0.1102
T06C0.1260
%
T01
X6550Y6450
X6550Y6850
X8050Y6950
X8050Y6550
X7950Y5850
X7950Y5450
X7650Y5150
X7250Y5150
X6850Y5150
X6950Y4750
X6950Y4350
X6950Y3950
X6950Y3550
X7250Y8450
X7650Y8450
X6850Y8650
X6850Y9850
X7250Y10050
X7650Y10050
X8450Y8450
X8950Y8450
X9250Y8950
X9250Y9350
X9250Y9750
T02
X4250Y8650
X4250Y8150
X4250Y7650
X4250Y7150
X4250Y6650
X4250Y6150
X4250Y5650
X4250Y5150
X4250Y4650
X3750Y4650
X3750Y5150
X3750Y5650
X3750Y6150
X3750Y6650
X3750Y7150
X3750Y7650
X3750Y8150
X3750Y8650
X3250Y8650
X3250Y8150
X3250Y7650
X3250Y7150
X3250Y6650
X3250Y6150
X3250Y5650
X3250Y5150
X3250Y4650
X2750Y4650
X2750Y5150
X2750Y5650
X2750Y6150
X2750Y6650
X2750Y7150
X2750Y7650
X2750Y8150
X2750Y8650
X2250Y8650
X2250Y8150
X2250Y7650
X2250Y7150
X2250Y6650
X2250Y6150
X2250Y5650
X2250Y5150
X2250Y4650
X1750Y4650
X1750Y5150
X1750Y5650
X1750Y6150
X1750Y6650
X1750Y7150
X1750Y7650
X1750Y8150
X1750Y8650
T03
X9150Y6250
X10150Y6250
T04
X7650Y10850
X7650Y11850
X6650Y11850
X5650Y11850
X5650Y10850
X6650Y10850
X4650Y10850
X4650Y11850
T05
X5350Y2250
X7450Y2250
X9650Y2250
X3150Y2250
T06
X1250Y1250
X1250Y11450
X11550Y11450
X11550Y1250
M30
